<?xml version="1.0" encoding="UTF-8" standalone="no"?>
<svg width="108px" height="108px" viewBox="0 0 108 108" version="1.1" xmlns="http://www.w3.org/2000/svg" xmlns:xlink="http://www.w3.org/1999/xlink">
    <!-- Generator: Sketch 49.1 (51147) - http://www.bohemiancoding.com/sketch -->
    <title>Android/Adaptive App Icon/App Icon Front</title>
    <desc>Created with Sketch.</desc>
    <defs></defs>
    <g id="3-Review" stroke="none" stroke-width="1" fill="none" fill-rule="evenodd">
        <g id="No-Mask">
            <g id="Icon">
                <g id="Android/Adaptive-App-Icon/App-Icon-Front">
                    <g id="Android---Adaptive-App-Icon-Front">
                        <g id="Artboard-18-copy-2" transform="translate(35.000000, 26.000000)">
                            <polygon id="Shape" fill="#00C8B3" fill-rule="nonzero" points="4.69018519 29.7103704 0.21462963 40.9133333 8.09259259 37.9472222 16.2766667 29.7103704 4.69018519 29.7103704"></polygon>
                            <path d="M37.6938889,34.2633333 C37.6938889,41.2651852 36.2043827,46.6930864 33.2253704,50.547037 C30.246358,54.4009877 25.6945679,56.327963 19.57,56.327963 C14.6581481,56.327963 10.5356173,55.0378395 7.20240741,52.4575926 C3.86919753,49.8773457 1.53993827,46.0292593 0.21462963,40.9133333 L8.09259259,37.9472222 C8.91358025,41.252284 10.2470988,43.8325309 12.0931481,45.687963 C13.9391975,47.5433951 16.4314815,48.4675926 19.57,48.4605556 C21.4606173,48.4605556 23.012284,48.0723457 24.225,47.2959259 C25.4349618,46.5251039 26.4213583,45.450138 27.0855556,44.1785185 C27.8135565,42.7645144 28.2999567,41.2387164 28.5246296,39.6642593 C28.7981091,37.8900209 28.9333924,36.0972238 28.9292593,34.302037 L28.9292593,0.087962963 L37.6938889,0.087962963 L37.6938889,34.2633333 Z" id="Shape" fill="#00F7C8" fill-rule="nonzero"></path>
                            <polygon id="Shape" fill="#00C8B3" fill-rule="nonzero" points="4.69018519 18.1203704 4.69018519 29.7103704 4.69018519 29.7103704 4.69018519 18.1203704 16.2766667 18.1203704 16.2766667 18.1203704 28.9292593 7.46981481 28.9292593 0.087962963"></polygon>
                            <rect id="Rectangle-path" fill="#000000" fill-rule="nonzero" x="4.69018519" y="18.1238889" width="11.5864815" height="11.5864815"></rect>
                        </g>
                    </g>
                </g>
            </g>
        </g>
    </g>
</svg>