<svg xmlns="http://www.w3.org/2000/svg" xmlns:xlink="http://www.w3.org/1999/xlink" viewBox="0 0 268.38 321.25"><defs><style>.cls-1{fill:#231f20;}.cls-2{fill:#fff;}.cls-3,.cls-4{fill:#43c6f3;}.cls-3{stroke:#fff;stroke-miterlimit:10;}.cls-5{fill:none;}.cls-6{fill:url(#New_Gradient_Swatch);}</style><linearGradient id="New_Gradient_Swatch" x1="82.46" y1="160.62" x2="147.8" y2="160.62" gradientUnits="userSpaceOnUse"><stop offset="0" stop-color="#6fc7b4"/><stop offset="1" stop-color="#df4b9b"/></linearGradient></defs><title>celular</title><g id="Layer_2" data-name="Layer 2"><g id="Layer_1-2" data-name="Layer 1"><rect class="cls-1" x="3" y="86.72" width="147.8" height="147.8"/><path class="cls-2" d="M147.8,89.72v141.8H6V89.72H147.8m6-6H0v153.8H153.8V83.72Z"/><path class="cls-3" d="M66.94,39.91,110.68,307a16.36,16.36,0,0,0,18.77,13.49l124.73-20.42a16.37,16.37,0,0,0,13.49-18.77L223.93,14.2A16.3,16.3,0,0,0,205.16.72L80.42,21.14A16.36,16.36,0,0,0,66.94,39.91Zm17.64,14.3L211.76,33.38a7.86,7.86,0,0,1,9,6.47l36.35,222a7.85,7.85,0,0,1-6.46,9L123.46,291.67a7.78,7.78,0,0,1-9-6.46L78.11,63.2A7.84,7.84,0,0,1,84.58,54.21Z"/><rect class="cls-4" x="124.86" y="27.04" width="38.58" height="5.4" rx="1.9" ry="1.9" transform="translate(-2.98 25.56) rotate(-10.03)"/><path class="cls-2" d="M127.82,36a3.41,3.41,0,0,1-.6-6.77l32.68-5.78a3.41,3.41,0,0,1,1.18,6.72L128.41,36A4,4,0,0,1,127.82,36Zm32.67-11.18-.35,0-32.67,5.78a2,2,0,0,0-.79,3.59,2,2,0,0,0,1.48.33l32.68-5.78a2,2,0,0,0-.35-3.95Z"/><circle class="cls-4" cx="195.15" cy="24.34" r="5.95"/><path class="cls-2" d="M195.14,31a6.66,6.66,0,1,1,6.57-7.82h0A6.65,6.65,0,0,1,195.14,31Zm0-11.89a4.77,4.77,0,0,0-.92.08,5.24,5.24,0,1,0,.92-.08Z"/><circle class="cls-4" cx="112.24" cy="35.38" r="2.7"/><path class="cls-2" d="M112.23,38.8A3.43,3.43,0,0,1,108.88,36a3.43,3.43,0,0,1,2.77-4,3.41,3.41,0,1,1,1.18,6.72A3.05,3.05,0,0,1,112.23,38.8Zm0-5.41a2.19,2.19,0,0,0-.36,0,2,2,0,0,0-1.61,2.31A1.94,1.94,0,0,0,111.1,37a2,2,0,0,0,1.49.33A2,2,0,0,0,114.2,35h0a2,2,0,0,0-.82-1.29A2,2,0,0,0,112.25,33.39Z"/><circle class="cls-4" cx="102.27" cy="37.15" r="2.7"/><path class="cls-2" d="M102.27,40.56a3.41,3.41,0,0,1-2.79-5.37,3.4,3.4,0,0,1,2.2-1.4,3.35,3.35,0,0,1,2.55.56,3.4,3.4,0,0,1,1.4,2.2h0a3.42,3.42,0,0,1-2.76,4A4,4,0,0,1,102.27,40.56Zm0-5.4a2,2,0,0,0-.35,0,2,2,0,0,0-1.29.82,2,2,0,0,0-.33,1.48,2,2,0,0,0,.82,1.29,2.07,2.07,0,0,0,1.49.33,2,2,0,0,0,1.28-.82,2,2,0,0,0,.33-1.49h0a2,2,0,0,0-2-1.64Z"/><rect class="cls-4" x="160.5" y="288.39" width="53.82" height="12.73" rx="4.48" ry="4.48" transform="matrix(0.99, -0.16, 0.16, 0.99, -45.17, 34.16)"/><path class="cls-2" d="M167,305.15a7.08,7.08,0,0,1-1-14.06l40.55-6.64a7.08,7.08,0,1,1,2.29,14l-40.55,6.64A8.73,8.73,0,0,1,167,305.15Zm40.72-19.37a5.5,5.5,0,0,0-1,.07l-40.55,6.64a5.65,5.65,0,0,0-2.38,10.17,5.59,5.59,0,0,0,4.21,1L208.6,297a5.65,5.65,0,0,0,4.66-6.49,5.68,5.68,0,0,0-5.5-4.74Z"/><path class="cls-5" d="M147.8,231.52H105.68l8.79,53.69a7.78,7.78,0,0,0,9,6.46l127.19-20.82a7.85,7.85,0,0,0,6.46-9l-36.35-222a7.86,7.86,0,0,0-9-6.47L84.58,54.21a7.84,7.84,0,0,0-6.47,9l4.35,26.52H147.8Z"/><polygon class="cls-6" points="147.81 231.53 147.81 89.72 82.46 89.72 105.68 231.53 147.81 231.53"/><path class="cls-4" d="M211,286.85a5.6,5.6,0,0,0-3.22-1.07,5.5,5.5,0,0,0-1,.07l-40.55,6.64a5.65,5.65,0,0,0-2.38,10.17,5.59,5.59,0,0,0,4.21,1L208.6,297a5.65,5.65,0,0,0,4.66-6.49A5.59,5.59,0,0,0,211,286.85Z"/><path class="cls-2" d="M206.54,284.45,166,291.09a7.08,7.08,0,0,0,1,14.06,8.73,8.73,0,0,0,1.24-.09l40.55-6.64a7.08,7.08,0,1,0-2.29-14Zm2.17,13.26-40.55,6.64a6.36,6.36,0,0,1-2.06-12.56l40.55-6.64a6.36,6.36,0,1,1,2.06,12.56Z"/><path class="cls-2" d="M206.65,285.15l-40.55,6.64a6.36,6.36,0,0,0,2.06,12.56l40.55-6.64a6.36,6.36,0,1,0-2.06-12.56ZM208.6,297l-40.55,6.64a5.59,5.59,0,0,1-4.21-1,5.65,5.65,0,0,1,2.38-10.17l40.55-6.64a5.5,5.5,0,0,1,1-.07A5.65,5.65,0,0,1,208.6,297Z"/></g></g></svg>