<svg xmlns="http://www.w3.org/2000/svg" viewBox="0 0 748.92 183.59"><defs><style>.cls-1{fill:#fff;}</style></defs><title>jandig_1</title><g id="Layer_2" data-name="Layer 2"><g id="Layer_1-2" data-name="Layer 1"><path class="cls-1" d="M94.33,0h-.56L14.34,58.47l-.2.15v38L.06,133.21l0,.06H0l0,.1.35,1Q6.92,158.7,22.85,171q16.31,12.59,40.37,12.58h.09q30,0,44.59-18.87t14.58-53.15V0H94.33ZM1.3,132.8,15.11,96.88V96.7H51.17L25.05,123.86Zm92.47-21.13a112.32,112.32,0,0,1-1.32,17.5,46.27,46.27,0,0,1-4.7,14.73,26.74,26.74,0,0,1-9.33,10.17q-5.92,3.8-15.15,3.81-15.32,0-24.36-9.06Q30.06,140,26,124.27L52.28,97l.14-.15V96.7h0V59.58l.32-.32,41-34.5Zm0-88.22L52.11,58.52l-.35.36H15.49L93.77,1.26Z"/><path class="cls-1" d="M221,8.82H209q-5.52,0-5.52,5.91V80q0,13.95-2.64,19.93t-11.31,6a20.92,20.92,0,0,1-11.42-3.23q-6-3.7-7.41,1l-3.3,10.79q-1,3.46,3.15,5.91,7.17,4.17,19.22,4.18,17.25,0,27-8.55T226.5,78.4V14.73Q226.5,8.82,221,8.82Z"/><path class="cls-1" d="M307.06,45.07q-8.79-7.57-25.17-7.57a62.75,62.75,0,0,0-15.76,1.62,53.44,53.44,0,0,0-9.73,3.43A28.76,28.76,0,0,0,250,46.8Q246.35,50,248.79,53l6.54,8q2.37,2.84,6-.31a48.47,48.47,0,0,1,4.61-3.43,29.34,29.34,0,0,1,6.07-3,23.08,23.08,0,0,1,8.07-1.3q6.46,0,10.09,3t3.62,10.24v3.15q-19.3.48-34.35,7.57T244.38,99.75q0,10.95,6.7,17.29t19.62,6.34a39.4,39.4,0,0,0,11.94-2.08,28.34,28.34,0,0,0,11.14-6.58v2.36q0,4.73,4.29,4.73h13c3.18,0,4.76-1.58,4.76-4.73V67.36Q315.84,52.63,307.06,45.07Zm-13.28,56.57a23.49,23.49,0,0,1-8.43,5.2,27.89,27.89,0,0,1-7.8,1.1,14.14,14.14,0,0,1-5.28-.94,6.56,6.56,0,0,1-3.46-3,9.72,9.72,0,0,1-1.11-4.77,9.58,9.58,0,0,1,1.93-6,19.44,19.44,0,0,1,6.43-4.89q4.49-2.36,17.72-3.86Z"/><path class="cls-1" d="M382,37.5a35.46,35.46,0,0,0-13.56,2.33,19.38,19.38,0,0,0-9.27,8.55V43.81q0-4.73-4.73-4.73H342q-4.72,0-4.73,4.73v73.27q0,4.73,4.7,4.73h12.51q4.69,0,4.7-4.73V86q0-20.25,4.2-26.67T375.89,53q7.85,0,10.22,4.49t2.38,21.66v38q0,4.73,4.72,4.73h12.61q4.73,0,4.73-4.73V73.43q0-20.49-8.09-28.21T382,37.5Z"/><path class="cls-1" d="M499.78,5.52H487.72q-4.53,0-4.53,4.72V42.07c0,2.1.11,4.21.32,6.31h-.32q-4.17-6.78-9.3-8.83a33.37,33.37,0,0,0-12.34-2q-18.84,0-26.49,12.81t-7.65,30.13q0,17.34,7.65,30.14t26.49,12.8a33.17,33.17,0,0,0,12.34-2q5.13-2,9.3-8.82v4.57q0,4.73,3.94,4.73h12.45q4.73,0,4.73-4.73V10.24Q504.31,5.52,499.78,5.52ZM483.19,84q0,10.64-4.34,17.29t-10.43,6.66q-10.95,0-14.32-7.44t-3.37-20.06q0-12.6,3.37-20T468.42,53q6.09,0,10.43,6.65t4.34,17.3Z"/><rect class="cls-1" x="525.74" y="7.41" width="22.06" height="19.54" rx="4.73" ry="4.73"/><rect class="cls-1" x="525.74" y="39.08" width="22.06" height="82.73" rx="4.73" ry="4.73"/><path class="cls-1" d="M636.78,39.08h-13q-4.12,0-4.12,4.73v4.57q-4.1-6.78-9.14-8.83a32.29,32.29,0,0,0-12.13-2q-18.51,0-26,12.81t-7.52,30.13q0,16.55,7.52,29.35t26,12.81a32.29,32.29,0,0,0,12.13-2q5.06-2.05,9.14-8.83H620c-.21,2.1-.32,4.21-.32,6.31v1.34q0,12.6-5.35,16.34t-15.45,3.75a51.31,51.31,0,0,1-12.09-1.19,45.22,45.22,0,0,1-8-2.67c-2.68-1.26-4.59-.74-5.75,1.57l-2.84,5.67q-2.52,5.06,1.26,6.86A46.39,46.39,0,0,0,585.77,154a127.37,127.37,0,0,0,15.45.87q19.69,0,30.09-7.33t10.4-26.63V43.81Q641.71,39.08,636.78,39.08ZM619.65,83.2q0,10.64-4.21,17.3t-10.13,6.65q-10.63,0-13.9-7.44t-3.27-19.27q0-12.6,3.27-20T605.31,53q5.91,0,10.13,6.65t4.21,17.3Z"/><path class="cls-1" d="M167.75,170.44c-.56,0-.69-.4-.38-1.21l9.11-23.92c.28-.75.69-1.12,1.21-1.12h2.56c.53,0,.93.37,1.21,1.12l9.12,23.92c.3.81.18,1.21-.39,1.21h-1.65a1.22,1.22,0,0,1-1.2-.9l-2.3-6.06H172.91l-2.3,6.06a1.24,1.24,0,0,1-1.21.9Zm6.3-10h9.84l-2.78-7.32c-.33-.68-.65-1.44-1-2.27s-.69-2-1.12-3.53h-.09c-.44,1.52-.81,2.7-1.13,3.53s-.64,1.59-1,2.27Z"/><path class="cls-1" d="M193.53,163.74V152a.72.72,0,0,1,.82-.82h1.57a.73.73,0,0,1,.83.82v10.82c0,2.4.39,3.91,1.19,4.55a5.12,5.12,0,0,0,6.51-.45q1.23-1.43,1.23-4.87V152a.72.72,0,0,1,.82-.82h1.55a.72.72,0,0,1,.82.82v17.58a.73.73,0,0,1-.83.82h-1.53a.73.73,0,0,1-.83-.82v-1.47a7.33,7.33,0,0,1-6,2.6,5.61,5.61,0,0,1-4.69-1.87A8.08,8.08,0,0,1,193.53,163.74Z"/><path class="cls-1" d="M213,160.83a12.65,12.65,0,0,1,1.91-6.93,6.19,6.19,0,0,1,5.56-3,7,7,0,0,1,3.37.69,8,8,0,0,1,2.27,1.91V152c0-.55.23-.82.7-.82h1.65c.58,0,.87.27.87.82v18.55a8.48,8.48,0,0,1-1.62,5.5c-1.08,1.32-3.21,2-6.39,2a12,12,0,0,1-4.8-.73,6.36,6.36,0,0,1-2.27-1.53q-.5-.6-.06-1l1-1c.28-.27.67-.18,1.17.26a6.85,6.85,0,0,0,1.87,1.25,8.86,8.86,0,0,0,3.09.38,5.24,5.24,0,0,0,3.64-1.07c.76-.7,1.14-2.17,1.14-4.39v-1.1c0-.37,0-.75,0-1.11h0a7.3,7.3,0,0,1-2.24,2,6.83,6.83,0,0,1-3.4.73,6.17,6.17,0,0,1-5.56-3A12.6,12.6,0,0,1,213,160.83Zm3.41,0a11.26,11.26,0,0,0,1.16,5.46,4.15,4.15,0,0,0,3.95,2.08,4.36,4.36,0,0,0,3.28-1.34,5.63,5.63,0,0,0,1.31-4.09v-4.21a5.64,5.64,0,0,0-1.31-4.1,4.39,4.39,0,0,0-3.28-1.34,4.15,4.15,0,0,0-3.95,2.08A11.28,11.28,0,0,0,216.43,160.83Z"/><path class="cls-1" d="M235.37,170.44a.72.72,0,0,1-.82-.82V152a.73.73,0,0,1,.83-.82h1.54a.73.73,0,0,1,.82.82v1.47a8,8,0,0,1,2.56-2,6.27,6.27,0,0,1,2.66-.64,6.44,6.44,0,0,1,3.61.86,4.3,4.3,0,0,1,1.62,1.74h.08a8.31,8.31,0,0,1,2.51-1.85,7.19,7.19,0,0,1,3.23-.75,5.13,5.13,0,0,1,4.34,1.88,8.11,8.11,0,0,1,1.47,5.13v11.7a.73.73,0,0,1-.83.82h-1.57a.72.72,0,0,1-.82-.82V159c0-2.39-.3-3.94-.89-4.64a3.33,3.33,0,0,0-2.71-1.05,3.65,3.65,0,0,0-3,1.56,7.72,7.72,0,0,0-1.2,4.72v10.05a.73.73,0,0,1-.83.82H246.4a.73.73,0,0,1-.83-.82V159c0-2.39-.29-3.94-.88-4.64a3.37,3.37,0,0,0-2.73-1.05,3.78,3.78,0,0,0-3,1.42q-1.22,1.41-1.21,4.86v10.05a.72.72,0,0,1-.82.82Z"/><path class="cls-1" d="M264.23,160.83a10.85,10.85,0,0,1,2.27-7.23,8,8,0,0,1,6.5-2.69,7.67,7.67,0,0,1,5.83,2.46c1.54,1.64,2.32,4.26,2.32,7.86,0,.55-.26.83-.76.83H267.56q.31,3.54,1.92,4.93a5.42,5.42,0,0,0,3.63,1.38,6.17,6.17,0,0,0,3.28-.71,6.6,6.6,0,0,0,1.68-1.41c.39-.52.77-.61,1.14-.3l1.08.94c.28.24.28.58,0,1a9.54,9.54,0,0,1-2,1.69,9,9,0,0,1-5.15,1.16c-3.06,0-5.31-.89-6.75-2.69A11.15,11.15,0,0,1,264.23,160.83Zm3.33-1.15h10.35a8.61,8.61,0,0,0-1.32-4.5,4.07,4.07,0,0,0-3.66-1.93,5,5,0,0,0-3.61,1.42Q267.83,156.1,267.56,159.68Z"/><path class="cls-1" d="M286.19,170.44a.73.73,0,0,1-.82-.82V152a.73.73,0,0,1,.83-.82h1.54a.72.72,0,0,1,.82.82v1.47a7.3,7.3,0,0,1,6-2.6c2.24,0,3.84.62,4.82,1.88a8.17,8.17,0,0,1,1.46,5.13v11.7a.72.72,0,0,1-.82.82h-1.58a.73.73,0,0,1-.82-.82V158.8c0-2.39-.4-3.91-1.19-4.55a4.71,4.71,0,0,0-3-1,4.52,4.52,0,0,0-3.62,1.42q-1.23,1.41-1.23,4.86v10.05a.72.72,0,0,1-.82.82Z"/><path class="cls-1" d="M305.09,153.64c-.55,0-.82-.22-.82-.65v-1.13c0-.43.27-.64.82-.64h2.16v-1.65a1.33,1.33,0,0,1,.19-.69l1.28-2.33c.23-.43.42-.64.56-.64h.65c.36,0,.54.21.54.64v4.67h3.9c.55,0,.83.21.83.64V153c0,.43-.28.65-.83.65h-3.9V165.3a3.76,3.76,0,0,0,.58,2.5,1.88,1.88,0,0,0,1.38.57,4,4,0,0,0,1.49-.36,5.61,5.61,0,0,0,1.2-.63c.22-.17.39-.11.52.17l.6,1.41a.43.43,0,0,1-.22.58,8.61,8.61,0,0,1-2.09.82,10,10,0,0,1-2.74.39,3.39,3.39,0,0,1-2.92-1.37,6.42,6.42,0,0,1-1-3.88V153.64Z"/><path class="cls-1" d="M318.84,160.83a10.85,10.85,0,0,1,2.27-7.23,8,8,0,0,1,6.5-2.69,7.67,7.67,0,0,1,5.83,2.46c1.54,1.64,2.32,4.26,2.32,7.86,0,.55-.26.83-.76.83H322.17q.31,3.54,1.92,4.93a5.42,5.42,0,0,0,3.63,1.38,6.17,6.17,0,0,0,3.28-.71,6.43,6.43,0,0,0,1.68-1.41c.39-.52.77-.61,1.14-.3l1.08.94c.28.24.28.58,0,1a9.54,9.54,0,0,1-2,1.69,9,9,0,0,1-5.15,1.16c-3.06,0-5.3-.89-6.75-2.69A11.15,11.15,0,0,1,318.84,160.83Zm3.33-1.15h10.35a8.61,8.61,0,0,0-1.32-4.5,4.07,4.07,0,0,0-3.66-1.93,5,5,0,0,0-3.61,1.42C322.94,155.62,322.36,157.29,322.17,159.68Z"/><path class="cls-1" d="M338.94,160.83a12.5,12.5,0,0,1,1.94-6.93,6.3,6.3,0,0,1,5.65-3,7.26,7.26,0,0,1,3.42.69,8.11,8.11,0,0,1,2.3,1.91h0c0-.37,0-.74,0-1.12v-8.15c0-.55.26-.82.77-.82h1.48c.51,0,.77.27.77.82v25.38a.72.72,0,0,1-.82.82h-1.54c-.44,0-.66-.27-.66-.82v-1.47a8.11,8.11,0,0,1-2.3,1.91,7.26,7.26,0,0,1-3.42.69,6.28,6.28,0,0,1-5.65-3A12.46,12.46,0,0,1,338.94,160.83Zm3.41,0a11,11,0,0,0,1.18,5.46,4.26,4.26,0,0,0,4,2.08,4.54,4.54,0,0,0,3.36-1.34,5.59,5.59,0,0,0,1.33-4.09v-4.21a5.6,5.6,0,0,0-1.33-4.1,4.58,4.58,0,0,0-3.36-1.34,4.26,4.26,0,0,0-4,2.08A11,11,0,0,0,342.35,160.83Z"/><path class="cls-1" d="M374.39,170.44c-.62,0-.92-.33-.92-1V145.2c0-.67.3-1,.92-1h8.84c3.52,0,6.08.66,7.66,2a6.86,6.86,0,0,1,.39,10,8.63,8.63,0,0,1-5.52,2.23v0a15.38,15.38,0,0,1,2.47,2.12,16,16,0,0,1,1.36,1.94l3.91,6.72c.47.81.39,1.21-.26,1.21h-1.88a1.32,1.32,0,0,1-1.19-.71l-3.81-6.54a11.51,11.51,0,0,0-2.36-2.76,5.61,5.61,0,0,0-3.83-1.36H377v10.36c0,.68-.31,1-.92,1Zm2.6-14.37h5.29a12.75,12.75,0,0,0,5.49-.94c1.28-.63,1.92-1.95,1.92-4a3.14,3.14,0,0,0-1.76-3.13,11.22,11.22,0,0,0-4.78-.84H377Z"/><path class="cls-1" d="M397.43,160.83a10.85,10.85,0,0,1,2.27-7.23,8,8,0,0,1,6.5-2.69,7.65,7.65,0,0,1,5.83,2.46q2.33,2.46,2.32,7.86c0,.55-.25.83-.76.83H400.77q.3,3.54,1.91,4.93a5.43,5.43,0,0,0,3.64,1.38,6.22,6.22,0,0,0,3.28-.71,6.6,6.6,0,0,0,1.68-1.41c.38-.52.76-.61,1.13-.3l1.08.94c.28.24.28.58,0,1a8.28,8.28,0,0,1-7.14,2.85c-3.05,0-5.3-.89-6.75-2.69A11.21,11.21,0,0,1,397.43,160.83Zm3.34-1.15h10.34a8.61,8.61,0,0,0-1.32-4.5,4.07,4.07,0,0,0-3.66-1.93,5,5,0,0,0-3.61,1.42C401.54,155.62,401,157.29,400.77,159.68Z"/><path class="cls-1" d="M417.54,165.32a5,5,0,0,1,3-4.78c2-1,5.07-1.61,9.11-1.78v-1.24a5.54,5.54,0,0,0-.78-3c-.51-.83-1.54-1.25-3.08-1.25a7.77,7.77,0,0,0-2.34.28,7,7,0,0,0-1.61.75,6.9,6.9,0,0,0-1.38,1.2q-.5.55-.93.06l-.95-1.1c-.27-.31-.18-.67.27-1.1a7.79,7.79,0,0,1,1.89-1.37,10.15,10.15,0,0,1,2.27-.78,11.8,11.8,0,0,1,2.78-.32c2.55,0,4.37.65,5.46,2a8.23,8.23,0,0,1,1.62,5.39v11.35a.73.73,0,0,1-.83.82h-1.67c-.48,0-.72-.27-.72-.82v-.9a9.25,9.25,0,0,1-2.83,1.59,10.23,10.23,0,0,1-3.08.44,6.78,6.78,0,0,1-4.62-1.43A5,5,0,0,1,417.54,165.32Zm3.33.07a3.19,3.19,0,0,0,.47,1.82,2.13,2.13,0,0,0,1.32.88,7.78,7.78,0,0,0,1.76.19,12.72,12.72,0,0,0,2.67-.27,6.07,6.07,0,0,0,2.6-1.45v-5.4a35.22,35.22,0,0,0-5.27.67,5.48,5.48,0,0,0-2.56,1.35A3,3,0,0,0,420.87,165.39Z"/><path class="cls-1" d="M438.94,170.44a.73.73,0,0,1-.83-.82V146.77a1.37,1.37,0,0,1,.19-.7l1.28-2.32c.23-.43.42-.64.57-.64h.64c.36,0,.55.21.55.64v25.87a.73.73,0,0,1-.83.82Z"/><path class="cls-1" d="M447.36,147.74a.72.72,0,0,1-.82-.82v-1.58a.72.72,0,0,1,.82-.82h1.57a.73.73,0,0,1,.83.82v1.58a.73.73,0,0,1-.83.82Zm0,22.7a.72.72,0,0,1-.82-.82V152a.72.72,0,0,1,.82-.82h1.57a.73.73,0,0,1,.83.82v17.58a.73.73,0,0,1-.83.82Z"/><path class="cls-1" d="M454,153.64c-.55,0-.82-.22-.82-.65v-1.13c0-.43.27-.64.82-.64h2.16v-1.65a1.33,1.33,0,0,1,.19-.69l1.28-2.33c.23-.43.42-.64.57-.64h.64c.36,0,.55.21.55.64v4.67h3.89c.55,0,.83.21.83.64V153c0,.43-.28.65-.83.65h-3.89V165.3a3.77,3.77,0,0,0,.57,2.5,1.91,1.91,0,0,0,1.38.57,4,4,0,0,0,1.49-.36,5.5,5.5,0,0,0,1.21-.63c.22-.17.39-.11.51.17l.6,1.41a.42.42,0,0,1-.22.58,8.68,8.68,0,0,1-2.08.82,10.09,10.09,0,0,1-2.75.39,3.4,3.4,0,0,1-2.92-1.37,6.42,6.42,0,0,1-1-3.88V153.64Z"/><path class="cls-1" d="M467.48,152.12c-.22-.6-.09-.9.4-.9h1.79c.36,0,.62.24.79.71L474.82,164c.09.33.24.84.43,1.54s.32,1.33.41,1.88h0A12.62,12.62,0,0,1,476,166c.12-.45.3-1.09.53-1.93l4.33-12.09c.18-.47.44-.71.79-.71h1.8c.49,0,.63.3.41.9l-6.17,17.21a31.3,31.3,0,0,1-3.12,6.8,4.68,4.68,0,0,1-4.1,2,5,5,0,0,1-2.27-.43.41.41,0,0,1-.25-.56l.47-1.49a.33.33,0,0,1,.5-.22,3.72,3.72,0,0,0,1.44.32,2.38,2.38,0,0,0,2.09-1.38,15.65,15.65,0,0,0,1.28-2.78l.37-1.08Z"/><path class="cls-1" d="M498.51,170.44c-.56,0-.69-.4-.38-1.21l9.11-23.92c.28-.75.69-1.12,1.21-1.12H511c.53,0,.93.37,1.21,1.12l9.12,23.92c.3.81.18,1.21-.39,1.21H519.3a1.22,1.22,0,0,1-1.2-.9l-2.3-6.06H503.67l-2.3,6.06a1.24,1.24,0,0,1-1.21.9Zm6.3-10h9.84l-2.78-7.32c-.33-.68-.65-1.44-1-2.27s-.69-2-1.12-3.53h-.09c-.44,1.52-.81,2.7-1.13,3.53s-.64,1.59-1,2.27Z"/><path class="cls-1" d="M525.14,170.44a.72.72,0,0,1-.82-.82V152a.73.73,0,0,1,.83-.82h1.54a.73.73,0,0,1,.82.82v2.2a7,7,0,0,1,2.09-2.49,5.11,5.11,0,0,1,3-.84,4.86,4.86,0,0,1,1.66.2.42.42,0,0,1,.31.55l-.42,1.5c-.06.22-.22.31-.48.26a5.87,5.87,0,0,0-1.21-.13,4.21,4.21,0,0,0-3.55,1.93,8.75,8.75,0,0,0-1.4,5.26v9.14a.72.72,0,0,1-.82.82Z"/><path class="cls-1" d="M536.61,153.64c-.55,0-.83-.22-.83-.65v-1.13c0-.43.28-.64.83-.64h2.16v-1.65a1.42,1.42,0,0,1,.18-.69l1.28-2.33c.23-.43.42-.64.57-.64h.64c.37,0,.55.21.55.64v4.67h3.9c.55,0,.82.21.82.64V153c0,.43-.27.65-.82.65H542V165.3a3.7,3.7,0,0,0,.58,2.5,1.88,1.88,0,0,0,1.38.57,4,4,0,0,0,1.49-.36,5.61,5.61,0,0,0,1.2-.63c.22-.17.39-.11.51.17l.61,1.41a.44.44,0,0,1-.22.58,8.79,8.79,0,0,1-2.09.82,10,10,0,0,1-2.75.39,3.4,3.4,0,0,1-2.92-1.37,6.49,6.49,0,0,1-1-3.88V153.64Z"/><path class="cls-1" d="M672.34,11.44l-3.23-1.36c-.81-.34-1-.86-.62-1.55l.09-.15c.41-.68,1-.76,1.68-.25l2.81,2-.4-3.4c-.09-.85.25-1.28,1-1.28h.18c.79,0,1.14.43,1,1.28l-.4,3.4,2.76-2c.69-.51,1.24-.43,1.64.25l.09.15c.4.69.2,1.21-.6,1.55l-3.15,1.36,3.22,1.35c.82.34,1,.86.62,1.55l-.09.15c-.41.69-1,.77-1.68.27l-2.81-2.06.4,3.41c.1.86-.25,1.29-1,1.29h-.18c-.79,0-1.13-.43-1-1.29l.4-3.41-2.75,2.06c-.7.5-1.25.42-1.65-.27l-.09-.15c-.4-.69-.2-1.21.61-1.55Z"/><path class="cls-1" d="M681.33,22.83A4,4,0,0,1,683.77,19a18.68,18.68,0,0,1,7.29-1.42v-1a4.46,4.46,0,0,0-.62-2.38,2.69,2.69,0,0,0-2.47-1,6.41,6.41,0,0,0-1.88.22,5.37,5.37,0,0,0-1.28.6,6,6,0,0,0-1.11,1c-.26.3-.51.31-.74,0l-.76-.88c-.22-.25-.15-.54.22-.88a6.28,6.28,0,0,1,1.5-1.1,8.66,8.66,0,0,1,1.83-.62A9.76,9.76,0,0,1,688,11.3c2,0,3.49.53,4.36,1.58a6.54,6.54,0,0,1,1.31,4.31v9.08a.59.59,0,0,1-.67.66h-1.33c-.39,0-.58-.22-.58-.66v-.72a7.35,7.35,0,0,1-2.27,1.27,7.85,7.85,0,0,1-2.46.36,5.38,5.38,0,0,1-3.7-1.15A4,4,0,0,1,681.33,22.83Zm2.67.06a2.49,2.49,0,0,0,.38,1.46,1.68,1.68,0,0,0,1,.7,6.48,6.48,0,0,0,1.41.15A9.89,9.89,0,0,0,689,25a4.74,4.74,0,0,0,2.08-1.15V19.5a28.63,28.63,0,0,0-4.22.54,4.43,4.43,0,0,0-2.05,1.08A2.4,2.4,0,0,0,684,22.89Z"/><path class="cls-1" d="M698.46,26.93a.58.58,0,0,1-.66-.66V8a1.25,1.25,0,0,1,.14-.56l1-1.86c.18-.34.34-.51.45-.51h.52c.29,0,.43.17.43.51v20.7a.58.58,0,0,1-.65.66Z"/><path class="cls-1" d="M705.15,32.79c-.41,0-.62-.22-.62-.66V12.21a.58.58,0,0,1,.66-.66h1.23c.36,0,.53.22.53.66v1.17a6.48,6.48,0,0,1,1.85-1.52,5.72,5.72,0,0,1,2.73-.56,5,5,0,0,1,4.52,2.4,9.89,9.89,0,0,1,1.55,5.54,10,10,0,0,1-1.55,5.55,5,5,0,0,1-4.52,2.39,5.6,5.6,0,0,1-2.73-.56A6.32,6.32,0,0,1,707,25.1h0c0,.29,0,.59,0,.89v6.14c0,.44-.2.66-.62.66ZM707,20.93A4.49,4.49,0,0,0,708,24.2a3.62,3.62,0,0,0,2.68,1.08,3.42,3.42,0,0,0,3.23-1.67,8.85,8.85,0,0,0,1-4.37,8.78,8.78,0,0,0-1-4.36,3.4,3.4,0,0,0-3.23-1.67A3.65,3.65,0,0,0,708,14.28,4.5,4.5,0,0,0,707,17.56Z"/><path class="cls-1" d="M721.59,26.93a.58.58,0,0,1-.66-.66V6a.58.58,0,0,1,.66-.66h1.26a.58.58,0,0,1,.65.66V12.5c0,.3,0,.59,0,.88h0a6.77,6.77,0,0,1,2.06-1.57,6.56,6.56,0,0,1,2.75-.51,4.57,4.57,0,0,1,3.84,1.5,6.52,6.52,0,0,1,1.17,4.11v9.36a.58.58,0,0,1-.66.66H731.4a.58.58,0,0,1-.66-.66V17.62c0-1.92-.32-3.13-1-3.64a3.7,3.7,0,0,0-2.42-.77,3.57,3.57,0,0,0-2.88,1.13,6,6,0,0,0-1,3.89v8a.58.58,0,0,1-.65.66Z"/><path class="cls-1" d="M736.61,22.83A4,4,0,0,1,739.05,19a18.68,18.68,0,0,1,7.29-1.42v-1a4.46,4.46,0,0,0-.62-2.38,2.69,2.69,0,0,0-2.47-1,6.29,6.29,0,0,0-1.87.22,5.45,5.45,0,0,0-1.29.6,5.69,5.69,0,0,0-1.1,1c-.27.3-.51.31-.75,0l-.76-.88c-.22-.25-.14-.54.22-.88a6.31,6.31,0,0,1,1.51-1.1,8.55,8.55,0,0,1,1.82-.62,9.76,9.76,0,0,1,2.22-.26c2,0,3.5.53,4.37,1.58a6.54,6.54,0,0,1,1.3,4.31v9.08a.59.59,0,0,1-.67.66h-1.33c-.39,0-.58-.22-.58-.66v-.72a7.31,7.31,0,0,1-2.26,1.27,8,8,0,0,1-2.47.36,5.39,5.39,0,0,1-3.7-1.15A4.07,4.07,0,0,1,736.61,22.83Zm2.67.06a2.57,2.57,0,0,0,.38,1.46,1.73,1.73,0,0,0,1.06.7,6.39,6.39,0,0,0,1.4.15,9.83,9.83,0,0,0,2.14-.22,4.69,4.69,0,0,0,2.08-1.15V19.5a28.63,28.63,0,0,0-4.22.54,4.43,4.43,0,0,0-2,1.08A2.4,2.4,0,0,0,739.28,22.89Z"/></g></g></svg>