<svg xmlns="http://www.w3.org/2000/svg" xmlns:xlink="http://www.w3.org/1999/xlink" viewBox="0 0 343.21 398.79"><defs><style>.cls-1{fill:none;}.cls-2{fill:#fff;}.cls-3{clip-path:url(#clip-path);}.cls-4{fill:#050406;}</style><clipPath id="clip-path"><rect class="cls-1" x="69.51" y="69.77" width="204.43" height="204.07"/></clipPath></defs><title>markerlogo</title><g id="Layer_2" data-name="Layer 2"><g id="Layer_1-2" data-name="Layer 1"><rect class="cls-2" width="343.21" height="343.21"/><g class="cls-3"><rect class="cls-4" x="78.23" y="77.74" width="186.82" height="188.14"/><path class="cls-2" d="M253.74,385.3s13.11-9.9,14.84-13.09c6.18-11.44,4-45.79,3.29-55.39-.77-11.19-5.81-31.5-9.48-42.11-21.52-62.24-78.21-80.43-78.21-80.43s-14.48-5.62-19.06-6.64L62.89,219.12s-18.13,16.55-48.12,53.65l3.09,121.11,236.5.61Z"/><path class="cls-2" d="M255,395.11h-.67l-237.09-.62,0-.59L14.15,272.56l.14-.17c29.67-36.71,48-53.56,48.19-53.72l.1-.1.13,0L165.09,187l.16,0c4.58,1,18.56,6.44,19.16,6.67s57.19,19,78.57,80.81c3.89,11.26,8.76,31.38,9.51,42.26,1.39,20,1.93,45.91-3.37,55.72-1.65,3.05-12.82,11.62-14.74,13.08ZM18.47,393.27l235.22.61L253.1,385l.26-.2c3.62-2.73,13.31-10.37,14.67-12.89,4-7.45,5.17-27,3.23-55.06-.75-10.78-5.58-30.76-9.45-41.95-21.18-61.24-77.26-79.86-77.82-80.05-.18-.06-14.19-5.5-18.85-6.59L63.21,219.66c-1.5,1.39-19.43,18.22-47.82,53.32Z"/><path class="cls-2" d="M109.68,151.05s-19.17.82-27.62-4.9c-6.17-4.18-14-22.28-7.42-42.52s24.94-43.54,61.21-43.54,58.12,20,62.86,40.06,2.68,39.86-6,46.2-26,4.09-26,4.09Z"/><path class="cls-4" d="M158.55,193.06a21,21,0,0,1-2.19-2.43c-6.67,6.93-14.82,13.16-20.82,13.16s-15.66-7-23-20c-1.8,3.9-4.5,8.85-7.59,11.4-5.57,4.6-13.61,12.26-13.61,12.26L141,254.68l37.33-56.41S163.18,197.35,158.55,193.06Z"/><path class="cls-2" d="M141.17,256.11,90,207.47l.69-.67c.08-.07,8.13-7.74,13.65-12.3,3-2.48,5.65-7.39,7.35-11.08l.76-1.64.89,1.57c7.2,12.68,16.81,19.52,22.2,19.52,4.93,0,12.27-4.69,20.15-12.87l.75-.77.66.84a19.72,19.72,0,0,0,2.08,2.31c4.34,4,19.06,5,19.21,5l1.6.1ZM92.68,207.47l48.16,45.78,35.86-54.19c-4.08-.37-14.83-1.67-18.79-5.33A20.91,20.91,0,0,1,156.3,192c-4.3,4.34-13.5,12.69-20.76,12.69-5.83,0-15.41-6.5-22.92-18.93-1.78,3.59-4.26,7.79-7.09,10.13C101,199.65,94.75,205.51,92.68,207.47Z"/><path class="cls-4" d="M178.51,144.82c0-7.62-3.46-13.8-7.73-13.8h-.21c-8.1-19.2-34.1-17.08-34.1-17.08s-24-3-31.47,17.3a4.42,4.42,0,0,0-1.4-.23c-4.27,0-7.73,6.18-7.73,13.8,0,12.52,3.46,13.79,7.73,13.79h.27c4.63,28.8,22.69,45.19,31.67,45.19,8.79,0,30.35-16.37,36-45.19C175.47,158.41,178.51,156.57,178.51,144.82Z"/><path class="cls-2" d="M135.54,204.71c-10.18,0-27.75-17.58-32.46-45.19-5-.16-8.14-2.85-8.14-14.7,0-8.26,3.8-14.72,8.66-14.72a4.73,4.73,0,0,1,.83.07c6.26-15.59,22.17-17.29,28.79-17.29a30.63,30.63,0,0,1,3.27.15c.26,0,1.07-.07,2.27-.07,5.84,0,25.28,1.25,32.42,17.15,4.66.34,8.26,6.68,8.26,14.71,0,11.27-2.81,14.18-7.1,14.64C166.52,187.55,145.3,204.71,135.54,204.71Zm-30.91-47.08.15.83c4.62,28.73,22.75,44.41,30.76,44.41,7.65,0,29.43-15.58,35.11-44.45l.14-.71.73,0c3.07-.15,6.07-1.26,6.07-12.86,0-7-3.12-12.88-6.81-12.88l-.82,0-.25-.6c-6.31-15-23.74-16.58-31-16.58-1.38,0-2.21.07-2.22.07h-.09l-.1,0a30.37,30.37,0,0,0-3.13-.14c-6.34,0-21.71,1.64-27.35,16.85l-.31.83-.85-.28c-4.16-1.36-7.91,5-7.91,12.7,0,12.87,3.77,12.87,6.8,12.87h.19Z"/><path class="cls-4" d="M61.66,221s13.39-14.72,14.22-16.36,2.26-6.95,6.39-5.51,38.54,19.82,67.59,56.41l-17.51,26.78S119.78,251.62,61.66,221Z"/><path class="cls-2" d="M132.35,283.2h-.09a.92.92,0,0,1-.77-.57c-.13-.3-13.19-30.74-70.27-60.85a.91.91,0,0,1-.25-1.43c5.15-5.65,13.52-15,14.08-16.15.11-.22.23-.51.38-.85.79-1.89,2.28-5.42,5.5-5.42a4.87,4.87,0,0,1,1.64.3c4.16,1.44,38.49,19.52,68,56.71a.9.9,0,0,1,0,1.07l-17.51,26.78A1,1,0,0,1,132.35,283.2ZM63.14,220.7c49.63,26.43,65.9,53.13,69.33,59.7l16.26-24.85C120,219.6,85.83,201.3,82,200a3.32,3.32,0,0,0-1-.19c-2,0-3.07,2.58-3.8,4.29-.16.38-.3.71-.42,1C75.94,206.53,66.51,217,63.14,220.7Z"/><path class="cls-4" d="M177,116.83c-.1-2.91.68-22.72-10.23-41.95C156.6,57,139.56,57.83,137.26,58c-2.31-.2-19.35-1.05-29.5,16.85-10.91,19.23-10.32,39-10.23,42,.14,4.79,2.73,10.49,13.41,3.06,10.26-7.13,26.38-6.91,27.63-6.88a.87.87,0,0,1,0,.11s14.31-.66,25,6.77S177.12,120.85,177,116.83Z"/><path class="cls-2" d="M80.36,198.88s1.08-6.74,5.82-7.15c2.88-.25,8,2.25,16.49,8.17s36.07,28,43.49,38c0,0,14-18,12.15-30.86s-3.41-15.31-3.41-15.31,2.87-5.93,4.72-6.1,2.78,1.75,2.78,1.75c.35,1.48.81,2.95,2.66,8.88,2.29,7.33,2.94,18.14.67,24.47s-17.67,32.86-17.67,32.86S103.65,206.44,80.36,198.88Z"/><path class="cls-4" d="M162.28,188.3s-.46-1.07,5.57.16c4.51.91,16.43,5.41,16.43,5.41a38.91,38.91,0,0,1,4.24,17.48c.22,10.36-1.51,18.5-9.39,33.83-5.42,10.54-78.93,119-78.93,119l-8.4-31.58s57.25-80,67.08-98.11c8.66-15.95,8.1-21.69,7.58-31.58C166.15,197,163.21,191.52,162.28,188.3Z"/><path class="cls-2" d="M99.82,366.34l-9-34L91,332c.57-.8,57.33-80.16,67-98,8.31-15.31,8-21,7.5-30.35l0-.75c-.21-4-1.71-7.85-2.92-11-.5-1.29-.93-2.41-1.21-3.37a1.12,1.12,0,0,1,.13-.94,2.31,2.31,0,0,1,2-.69,24.22,24.22,0,0,1,4.52.61c4.54.92,16.09,5.26,16.58,5.45l.31.11.16.28c.17.29,4.15,7.2,4.37,17.94.21,10.06-1.2,18.13-9.49,34.26-5.38,10.46-76,114.62-79,119Zm-7-33.6,7.76,29.2c9.36-13.81,72.77-107.53,77.73-117.18,8.12-15.78,9.5-23.62,9.3-33.39a39.26,39.26,0,0,0-4-16.76c-1.93-.72-12-4.44-16-5.25a22.08,22.08,0,0,0-4.25-.57c.25.73.57,1.57.93,2.5,1.26,3.23,2.81,7.24,3,11.53l0,.74c.5,9.37.84,15.56-7.72,31.32C150.28,252.23,97,326.94,92.81,332.74Z"/><path class="cls-2" d="M18.69,298.83S48.36,284.73,87,285.34c0,0-10.34,7.38-13,32.5-2.16,20.54-1.85,59.79,10.2,77.27,0,0-39.26,1.22-65.84-17.17C18.38,377.94,17.76,298.83,18.69,298.83Z"/><path class="cls-4" d="M82.68,396c-6.64,0-41-.83-64.83-17.35l-.4-.27v-.48c-.61-78.57.21-79.39.56-79.75l.28-.27h.18c2.6-1.19,31.74-14.09,68.55-13.5l2.8.05-2.27,1.62c-.1.07-10,7.53-12.61,31.85-2.28,21.65-1.48,59.93,10,76.65l1,1.38-1.69.06ZM19.3,377.45c23.22,15.82,56.38,16.74,63.23,16.75-11.79-19.05-11.37-58.06-9.43-76.45,2-19.15,8.41-28.14,11.57-31.51h-.12c-34.44,0-61.54,11.65-65.07,13.24C18.94,304.16,19.07,348,19.3,377.45Z"/><ellipse class="cls-4" cx="89.89" cy="341.45" rx="16.08" ry="56.93"/><path class="cls-2" d="M267.34,295s-32.56-14.51-74.62-9.61c0,0,8.78,5.19,13.61,31,3.1,16.56-.61,59.79-10.82,78.8,0,0,51.63.92,72.65-19.63,0,0,8.52-1.42,6.6-46.8C273.32,294.54,267.34,295,267.34,295Z"/><path class="cls-4" d="M196.51,396h-1L194,396l.72-1.33c10-18.65,13.77-61.93,10.72-78.19-4.69-25.08-13.08-30.3-13.16-30.35l-2.35-1.38,2.71-.32a152.48,152.48,0,0,1,17.69-1c31.89,0,55.5,9.88,57.31,10.65,2,.37,6.8,4.35,8.07,34.58,1.76,41.47-5.2,46.93-7,47.65C249.2,395.08,205.16,396,196.51,396ZM195,286c2.89,2.91,8.68,10.88,12.29,30.11,3.09,16.52-.38,58.15-10.22,78.05,9.64,0,52-1.27,70.49-19.36l.21-.21.29,0s7.64-2.89,5.82-45.86c-1.28-30.22-6.11-32.69-6.52-32.85h-.14l-.21-.09c-.24-.11-24-10.54-56.66-10.54A150.25,150.25,0,0,0,195,286Z"/><path class="cls-4" d="M176.86,339.92c0,30.59,6.28,58.87,14,58.87s16.49-28.08,16.49-58.67-8.75-55.59-16.49-55.59S176.86,309.33,176.86,339.92Z"/><path class="cls-2" d="M167,102.05c-1.44-22.89-5.56-28.67-12-36-6-6.92-16.6-7.93-17.78-8h-.12c-1.18.09-11.75,1.1-17.78,8-6.39,7.33-10.51,13.11-12,36s6,18.89,6,18.89,7.83-5.78,21.84-5.78h3.94c14,0,21.84,5.78,21.84,5.78S168.43,124.94,167,102.05Z"/><path class="cls-4" d="M101.07,316.13s3.2.77,3.6-3.24-3.81-5.57-8.45-6.49a38.24,38.24,0,0,0-11,0c3.9-3.34,8.74-2.7,12.56-3,3.58-.31,4.11-3,3.73-4.95-.55-2.77-7.52-6.68-17.78-1.5C67,305.37,70.87,340.76,72.37,340.84c7.88.41,12-1.73,14.77-4.49s4.7-3.31,9.5-2.93c4,.31,6.18.07,6.87-3.35.63-3.15-3.83-4.82-3.83-4.82,1.55.15,4.52,1.15,5.59-3C106.56,317.33,101.07,316.13,101.07,316.13Z"/><path class="cls-2" d="M74.26,341.5c-.61,0-1.25,0-1.92-.05s-.89-.58-1.21-2.11c-1.11-5.15-3.51-35,12.35-43a22,22,0,0,1,9.86-2.61c5,0,8.36,2.3,8.8,4.53a5,5,0,0,1-.74,4A4.7,4.7,0,0,1,97.86,304c-.78.07-1.6.1-2.45.13-2.5.09-5.25.18-7.75,1.43,1.12-.09,2.37-.15,3.63-.15a26.27,26.27,0,0,1,5,.42c4.06.8,9.41,2.42,8.94,7.15a4,4,0,0,1-1.93,3.46,5.76,5.76,0,0,1,2.05,1.93,5.09,5.09,0,0,1,.47,4.07c-.58,2.24-1.76,3.44-3.59,3.64a4.18,4.18,0,0,1,1.83,4.14c-.7,3.46-3,3.94-5.33,3.94-.6,0-1.27,0-2.19-.1s-1.63-.11-2.29-.11a8.16,8.16,0,0,0-6.72,2.86C84.33,340,80.1,341.5,74.26,341.5Zm-1.61-1.26c8.29.38,12-2.32,14-4.32,2.46-2.44,4.31-3.22,7.6-3.22.69,0,1.47,0,2.39.11s1.53.09,2.09.09c2.67,0,3.67-.71,4.12-2.95.52-2.6-3.4-4.11-3.44-4.13l-4.34-1.64,4.62.46.62.08a9.37,9.37,0,0,0,1.35.13h0c1.05,0,2.33-.31,3-2.75a3.88,3.88,0,0,0-.32-3.12,6,6,0,0,0-3.41-2.25l.26-1.2a1.93,1.93,0,0,0,.48.05c1,0,2.15-.48,2.37-2.75.29-2.88-2.17-4.68-8-5.83a25.46,25.46,0,0,0-4.81-.39,46.88,46.88,0,0,0-6,.39l-2.08.29,1.59-1.36c3.28-2.81,7.12-2.94,10.52-3.06.82,0,1.62-.05,2.38-.12a3.5,3.5,0,0,0,2.66-1.24,3.85,3.85,0,0,0,.52-3c-.29-1.48-3.1-3.54-7.59-3.54a20.81,20.81,0,0,0-9.3,2.48c-5.21,2.63-8.87,8.2-10.89,16.55C70.32,325.77,71.86,338.51,72.65,340.24Z"/><path class="cls-4" d="M178.74,310.45,101,307.77s-1.36-37.6,33.47-60.2,65.51-15.83,90.19-6.29Z"/><path class="cls-2" d="M179.28,311.49l-.58,0L100,308.75l0-.95c0-.38-1-38.43,33.93-61.08,15.94-10.34,32-15.37,49.12-15.37,16.83,0,32,5.13,42,9l1.18.46Zm-77.22-4.71,76.14,2.63,44.93-67.63c-10.51-4-24.37-8.39-40.07-8.39-16.71,0-32.4,4.92-48,15C104.16,268.48,102.16,300.85,102.06,306.78Z"/><path class="cls-2" d="M147.4,309.38l-2-.24a39.07,39.07,0,0,1,55.56-30.38l-.89,1.83a37,37,0,0,0-52.63,28.79Z"/><line class="cls-1" x1="176.86" y1="232.82" x2="181.3" y2="306.32"/><polygon class="cls-2" points="180.28 306.38 175.84 232.88 177.89 232.76 182.33 306.26 180.28 306.38"/><line class="cls-1" x1="181.9" y1="304.65" x2="200.73" y2="234.39"/><polygon class="cls-2" points="182.89 304.91 180.9 304.38 199.73 234.13 201.72 234.65 182.89 304.91"/><path class="cls-4" d="M154.8,237.88c0,1.2,26,67.09,26,67"/><path class="cls-2" d="M180.72,305.88c-.61,0-.68-.19-2-3.48-.72-1.8-1.74-4.37-3-7.46-2.43-6.19-5.68-14.45-8.93-22.75-13.06-33.34-13.07-33.93-13.07-34.29l1,0,1-.16c.58,2.56,25.71,66.2,25.94,66.73l-.94.39v0l0,1Z"/><line class="cls-1" x1="134.5" y1="247.57" x2="181.19" y2="306.93"/><polygon class="cls-2" points="180.38 307.55 133.69 248.2 135.31 246.94 182 306.3 180.38 307.55"/><line class="cls-1" x1="181.09" y1="307.25" x2="115.71" y2="265.89"/><polygon class="cls-2" points="180.54 308.11 115.16 266.75 116.26 265.03 181.64 306.39 180.54 308.11"/><path class="cls-4" d="M104.65,285.4c.62.87,63.11,18.69,75.9,22.52"/><path class="cls-2" d="M180.26,308.89c-3.78-1.13-12-3.5-21.46-6.25-52.27-15.14-54.54-16-55-16.66l1.69-1.17a1,1,0,0,0-.27-.25c1.77.95,33.29,10.08,54.14,16.12,9.5,2.75,17.7,5.13,21.48,6.26Z"/><path class="cls-4" d="M189.06,307.63c-.11-.11,3.45,1.79,5.78,2.75,1.23.5,2.57,2.56,1.15,4.12-1.76,1.93-4-.27-4-.27l-4.69-4.37Z"/><path class="cls-2" d="M194.31,316.31a4.87,4.87,0,0,1-3.07-1.35l-5.36-5,2.28-2.84.21-.51h.69c.27,0,.27,0,1.42.58s3.25,1.62,4.76,2.24a4.18,4.18,0,0,1,2.3,2.8,3.39,3.39,0,0,1-3.23,4.08Zm-5.64-6.55,4,3.73a2.93,2.93,0,0,0,1.65.78,1.17,1.17,0,0,0,.92-.45,1.21,1.21,0,0,0,.31-1.14,2.14,2.14,0,0,0-1.09-1.36c-1.58-.65-3.65-1.69-4.89-2.32a1.24,1.24,0,0,1-.2-.1Z"/><path class="cls-4" d="M182.93,313.12a44,44,0,0,0,2.64,6.36,1.58,1.58,0,0,0,2,.49,1.52,1.52,0,0,0,.88-2.33c-.79-1.53-3.79-5.76-3.79-5.76s4.91,8.11,7,6.38c1.93-1.58.87-2.78.27-3.56a56.16,56.16,0,0,0-4.74-4.54"/><path class="cls-2" d="M186.8,321.12a2.46,2.46,0,0,1-2.06-1.09,41.91,41.91,0,0,1-2.76-6.59l1.9-.63a40.73,40.73,0,0,0,2.52,6.11c.1.15.3.33.84.12a.87.87,0,0,0,.48-.33,1,1,0,0,0-.13-.62c-.28-.54-.87-1.46-1.5-2.41a36.39,36.39,0,0,1-2.26-3.29l1.67-1.08c.08.1,1.15,1.61,2.17,3.14,1.27,1.64,2.56,2.93,3.3,3.05.07,0,.09,0,.1,0,1.11-.9.8-1.3.19-2.09l-.08-.1a52.06,52.06,0,0,0-4.6-4.39l1.32-1.49a55.18,55.18,0,0,1,4.88,4.68l.06.09c.58.74,2.11,2.71-.49,4.83a2.07,2.07,0,0,1-1.72.44,2.9,2.9,0,0,1-.95-.35,2.8,2.8,0,0,1-.09.31,2.64,2.64,0,0,1-1.62,1.47A3.28,3.28,0,0,1,186.8,321.12Z"/><path class="cls-4" d="M178.29,317.16l-.36,2.4s-.1,2,1.87,1.51c1.64-.43.46-4.93.46-4.93Z"/><path class="cls-2" d="M179.21,322.18h0a2.18,2.18,0,0,1-1.62-.66,2.87,2.87,0,0,1-.7-2v-.1l.44-2.92,3.6-1.87.33,1.26c.33,1.29,1.24,5.55-1.21,6.18A3.28,3.28,0,0,1,179.21,322.18Zm-.25-2.54a.93.93,0,0,0,.13.46.92.92,0,0,0,.45,0,5.48,5.48,0,0,0,0-2.39l-.28.15Z"/><path class="cls-4" d="M182.55,314.09l-1.71,1.35.69,3.84a1.4,1.4,0,0,0,2,1.07,1.46,1.46,0,0,0,1-2Z"/><path class="cls-2" d="M182.83,321.37h0a2.31,2.31,0,0,1-2.15-1.9l-.79-4.39,3-2.35,2.42,5.29a2.38,2.38,0,0,1,0,1.75,2.56,2.56,0,0,1-1.49,1.38A2.75,2.75,0,0,1,182.83,321.37Zm-.44-2.24s.14.5.44.5a.89.89,0,0,0,.34-.08.93.93,0,0,0,.54-.43.65.65,0,0,0,0-.39l-1.49-3.27-.42.34.59,3.33Z"/><path class="cls-4" d="M224.69,241.28s-52,75.47-49.6,77.47c2.74,2.26,67.31-63.47,67.31-63.47Z"/><path class="cls-2" d="M175.28,319.82h0a1.32,1.32,0,0,1-.85-.29c-1.1-.9-2.23-1.83,23.69-40.82,12.56-18.91,25.59-37.81,25.72-38l.62-.91,19.47,15.38-.8.81C228.42,271,180.06,319.82,175.28,319.82Zm49.63-77.06c-17.72,25.73-44.55,65.8-48.41,74.36,7.8-5.23,42.34-39.34,64.37-61.75Z"/><path class="cls-4" d="M192,299.9c-10-3.67-16.12-1.1-16.63,1.3-.36,1.68.13,4,3.49,4.3,3.57.29,8.1-.26,11.75,2.64a38.7,38.7,0,0,0-10.27,0c-4.34.8-8.27,2.2-7.9,5.64s4.33,2.65,4.33,2.65-6.1,1.19-4.9,5.48c1,3.59,3.78,2.73,5.23,2.59,0,0-4.17,1.46-3.58,4.18.65,3,2.67,3.18,6.42,2.91,4.5-.32,6.29.15,8.9,2.55s11.34,4.3,18.71,3.94c1-.05,4.35-14.28-1.23-25.76C203.89,307.3,196.92,301.71,192,299.9Z"/><path class="cls-2" d="M205.75,338.67h0c-7.16,0-14.75-1.81-17.27-4.13a8,8,0,0,0-6.32-2.49c-.61,0-1.31,0-2.15.09s-1.48.09-2,.09c-2.54,0-4.35-.58-5-3.43a3.54,3.54,0,0,1,1.66-3.59c-1.68-.18-2.77-1.22-3.31-3.16a3.88,3.88,0,0,1,.39-3.21,6,6,0,0,1,2.37-2,3.33,3.33,0,0,1-2.21-3c-.44-4.13,4.56-5.53,8.36-6.23a26.5,26.5,0,0,1,4.72-.37c1.14,0,2.28,0,3.3.12a18.91,18.91,0,0,0-7.16-1.19c-.79,0-1.56-.05-2.29-.11a4.42,4.42,0,0,1-3.37-1.59,4.13,4.13,0,0,1-.62-3.38c.37-1.72,3-3.57,7.94-3.57a27.53,27.53,0,0,1,9.43,1.88c4.87,1.78,12.07,7.44,14.63,12.69,5.27,10.85,2.74,23.91,1.47,26a.93.93,0,0,1-.71.53C207,338.66,206.37,338.67,205.75,338.67ZM182.15,331a9,9,0,0,1,7.08,2.78c2.3,2.12,9.71,3.84,16.51,3.84h0l1.62,0c1-1.51,3.64-14.32-1.54-25-2.44-5-9.34-10.43-14-12.15a26.44,26.44,0,0,0-9-1.8c-4.57,0-6.63,1.65-6.85,2.7a3.12,3.12,0,0,0,.42,2.48,3.36,3.36,0,0,0,2.57,1.15c.71.06,1.46.09,2.24.11,3.16.1,6.75.22,9.81,2.65l1.55,1.23-2-.25a46,46,0,0,0-5.57-.35,25.3,25.3,0,0,0-4.52.35c-5.42,1-7.71,2.54-7.45,5,.16,1.49,1.1,2.24,2.8,2.24a4.54,4.54,0,0,0,.86-.07l.23,1.08c-1.07.22-3.32,1-4.21,2.45a2.78,2.78,0,0,0-.26,2.34c.59,2.11,1.8,2.38,2.8,2.38a10.17,10.17,0,0,0,1.27-.11c.2,0,.4-.06.57-.07l4.47-.42L177.31,325s-3.7,1.32-3.22,3.54c.42,1.94,1.36,2.56,3.88,2.56.52,0,1.14,0,1.95-.09S181.51,331,182.15,331Z"/><line class="cls-1" x1="178.43" y1="316.23" x2="176.74" y2="316.44"/><polygon class="cls-2" points="178.44 316.28 176.81 316.99 176.68 315.9 178.43 316.18 178.44 316.28"/><path class="cls-4" d="M223.81,259h0a1.53,1.53,0,0,1-.32-2.15l1.59-2.13a1.57,1.57,0,0,1,2.18-.31h0a1.53,1.53,0,0,1,.32,2.15l-1.6,2.13A1.56,1.56,0,0,1,223.81,259Z"/><path class="cls-2" d="M224.73,260a2.29,2.29,0,0,1-1.36-.45,2.26,2.26,0,0,1-.48-3.18l1.6-2.12a2.37,2.37,0,0,1,3.21-.47,2.27,2.27,0,0,1,.47,3.18l-1.59,2.12A2.3,2.3,0,0,1,224.73,260Zm1.6-5.2a.81.81,0,0,0-.66.32l-1.59,2.12a.81.81,0,0,0-.15.6.78.78,0,0,0,.32.54.85.85,0,0,0,1.14-.17l1.59-2.12a.81.81,0,0,0-.16-1.14A.84.84,0,0,0,226.33,254.83Z"/><path class="cls-4" d="M218.68,265.31h0a1.54,1.54,0,0,1-.32-2.16L220,261a1.57,1.57,0,0,1,2.18-.31h0a1.54,1.54,0,0,1,.32,2.16L220.86,265A1.58,1.58,0,0,1,218.68,265.31Z"/><path class="cls-2" d="M219.6,266.34a2.28,2.28,0,0,1-1.83-3.63l1.59-2.12a2.37,2.37,0,0,1,3.21-.47,2.25,2.25,0,0,1,.47,3.18l-1.59,2.13A2.32,2.32,0,0,1,219.6,266.34Zm1.6-5.2a.78.78,0,0,0-.65.32l-1.6,2.12a.82.82,0,1,0,1.31,1l1.6-2.12a.82.82,0,0,0-.17-1.14A.84.84,0,0,0,221.2,261.14Z"/><path class="cls-2" d="M138.21,181.62c-2.42,0-5-.72-6.3-2.26a3.21,3.21,0,0,1-.41-3.55l.28-.59c2.47-5.31,8.27-17.73.85-27.92s-23-3.45-23.19-3.38a.94.94,0,0,1-1.23-.46.93.93,0,0,1,.46-1.22c.17-.08,17.07-7.54,25.46,4,8.06,11.06,1.94,24.17-.67,29.77l-.27.59a1.38,1.38,0,0,0,.16,1.61c1.09,1.33,4.29,2,6.84,1.38,1-.22,2.64-.82,3-2.36a.93.93,0,0,1,1.81.42c-.43,1.85-2,3.18-4.39,3.74A10.84,10.84,0,0,1,138.21,181.62Z"/><ellipse class="cls-2" cx="119.98" cy="156.88" rx="2.06" ry="2.04"/><path class="cls-2" d="M153,158.13h-.36c-3.56-.2-5.72-3.36-5.81-3.49a.92.92,0,0,1,.25-1.28.94.94,0,0,1,1.29.25s1.76,2.55,4.39,2.69c1.87.1,3.88-1,5.88-3.38a.92.92,0,1,1,1.41,1.19C157.77,156.78,155.4,158.13,153,158.13Z"/></g><path d="M273.7,69.52v204h-204v-204h204M333,10.25H10.39V332.82H333V10.25Z"/></g></g></svg>